<svg width="426" height="426" viewBox="0 0 426 426" fill="none" xmlns="http://www.w3.org/2000/svg">
<path d="M31.0985 283.137L31.1111 283.148L31.1238 283.159C36.5326 287.717 42.9191 290 50.1017 290C54.8842 290 59.3693 288.972 63.491 286.878C67.6641 284.824 71.0375 281.806 73.5558 277.88C76.2392 273.803 77.5017 269.051 77.5017 263.8C77.5017 255.825 74.7937 249.17 69.1035 244.362C63.7498 239.716 57.3482 237.4 50.1017 237.4C45.3085 237.4 40.7926 238.432 36.6128 240.522L36.5994 240.529L36.586 240.536C32.4202 242.658 29.0501 245.71 26.5326 249.644C23.9182 253.729 22.7017 258.508 22.7017 263.8C22.7017 271.681 25.4349 278.283 31.0985 283.137ZM106.592 280.739L106.6 280.743C118.453 286.952 131.974 290 147.056 290C160.172 290 171.669 288.363 181.462 284.981C191.04 281.673 199.21 277.491 205.889 272.376L208.606 270.294L206.97 267.288L188.57 233.488L186.406 229.514L182.728 232.148C177.657 235.778 172.382 238.408 166.895 240.072L166.883 240.076C161.37 241.768 155.965 242.6 150.656 242.6C143.665 242.6 137.956 241.353 133.381 239.041C128.791 236.654 125.348 233.334 122.946 229.046C120.547 224.762 119.256 219.466 119.256 213C119.256 208.265 119.963 204.113 121.307 200.491C122.65 196.871 124.576 193.842 127.069 191.344C129.612 188.862 132.76 186.926 136.591 185.571L136.616 185.562L136.642 185.552C140.444 184.149 144.959 183.4 150.256 183.4C156.166 183.4 161.398 184.332 166.004 186.127L166.033 186.138L166.062 186.149C170.693 187.871 174.552 190.455 177.706 193.901L181.337 197.868L184.092 193.249L203.892 160.049L205.632 157.131L203.035 154.942C195.912 148.937 188.136 144.274 179.715 140.975C171.093 137.598 160.353 136 147.656 136C136.346 136 125.846 137.874 116.201 141.674C106.595 145.392 98.2034 150.709 91.0709 157.629L91.0637 157.636L91.0566 157.643C83.9834 164.575 78.5163 172.806 74.652 182.291C70.7683 191.823 68.8563 202.277 68.8563 213.6C68.8563 229.038 72.1143 242.62 78.7913 254.198L78.7985 254.211L78.8059 254.223C85.5183 265.67 94.8024 274.527 106.592 280.739Z" fill="#7EC8F6" stroke="black" stroke-width="8"/>
<path d="M195.571 284.707L195.578 284.709C206.576 288.236 217.888 290 229.5 290C241.548 290 252.266 287.957 261.553 283.742L261.565 283.737L261.576 283.732C270.823 279.464 278.154 273.484 283.409 265.748C288.698 257.961 291.3 248.997 291.3 239C291.3 227.718 287.62 218.213 280.1 210.843C272.744 203.635 261.074 197.901 245.629 193.363C245.628 193.362 245.628 193.362 245.628 193.362L235.435 190.364C235.434 190.364 235.433 190.364 235.433 190.364C230.74 188.976 227.058 187.801 224.36 186.838C221.788 185.896 220.39 185.073 219.757 184.51C219.448 184.235 219.3 183.974 219.3 183.4C219.3 182.664 219.528 182.029 220.228 181.328C221.113 180.444 222.512 179.589 224.676 178.923L224.721 178.909L224.765 178.895C226.859 178.197 229.479 177.8 232.7 177.8C236.804 177.8 240.883 178.351 244.948 179.459C249.037 180.574 252.744 182.112 256.088 184.057L256.112 184.071L256.136 184.085C259.463 185.96 262.076 188.076 264.058 190.397L267.487 194.415L270.425 190.024L289.825 161.024L291.651 158.294L289.328 155.972C282.994 149.637 274.614 144.824 264.381 141.41C254.194 137.924 243.224 136.2 231.5 136.2C223.246 136.2 215.51 137.39 208.324 139.809C201.172 142.217 194.865 145.643 189.454 150.115C184.118 154.514 179.899 159.705 176.84 165.676L176.831 165.694L176.822 165.711C173.801 171.754 172.3 178.269 172.3 185.2C172.3 196.22 175.909 205.901 183.101 214.047L183.107 214.054L183.113 214.061C190.387 222.226 202.114 228.235 217.65 232.46L217.66 232.462L228.06 235.262L228.078 235.267L228.096 235.272C235.282 237.135 239.616 238.834 241.662 240.215L241.691 240.235L241.72 240.254C243.468 241.39 243.9 242.46 243.9 243.6C243.9 244.243 243.71 245.279 241.082 246.442C238.288 247.678 234.487 248.4 229.5 248.4C225.142 248.4 220.474 247.786 215.482 246.522C210.502 245.262 205.862 243.503 201.55 241.254C197.302 239.037 194.075 236.533 191.741 233.802L188.206 229.662L185.312 234.274L166.612 264.074L164.796 266.967L167.37 269.214C175.164 276.016 184.592 281.163 195.571 284.707Z" fill="#7EC8F6" stroke="black" stroke-width="8"/>
<path d="M302.335 284.35L303.285 287H306.1H353.1H355.911L356.863 284.355L407.263 144.355L409.191 139H403.5H358.7H355.778L354.889 141.784L330.1 219.446L305.31 141.784L304.422 139H301.5H255.9H250.216L252.135 144.35L302.335 284.35Z" fill="#7EC8F6" stroke="black" stroke-width="8"/>
</svg>
